C:\Users\movea\Dropbox\PhDWork\ExperimentalData\subject2\100\P2S100W03_filtered35.mot
nRows=6
nColumns=28

name C:\Users\movea\Dropbox\PhDWork\ExperimentalData\subject2\100\P2S100W03_filtered35.mot
datacolumns 28
datarows 6
range 1.9950000000 2.0000000000
endheader
time	ground_force_1_vx	ground_force_1_vy	ground_force_1_vz	ground_force_1_px	ground_force_1_py	ground_force_1_pz	ground_moment_1_mx	ground_moment_1_my	ground_moment_1_mz	ground_force_2_vx	ground_force_2_vy	ground_force_2_vz	ground_force_2_px	ground_force_2_py	ground_force_2_pz	ground_moment_2_mx	ground_moment_2_my	ground_moment_2_mz	ground_force_3_vx	ground_force_3_vy	ground_force_3_vz	ground_force_3_px	ground_force_3_py	ground_force_3_pz	ground_moment_3_mx	ground_moment_3_my	ground_moment_3_mz
        1.9950000000	        0.0000000000	        0.0000000000	        0.0000000000	        0.1988394961	        0.0000558755	       -0.3004071324	       -0.0000000000	        0.0000000000	       -0.0000000000	       -0.0000000000	        0.0000000000	       -0.0000000000	        0.2029003516	       -0.0000795827	        0.4543649445	        0.0000000000	        0.0000000000	       -0.0000000000	       -0.0005885735	        0.0000000000	        0.0030782043	        0.2076431971	        0.0000770316	        1.3583900146	        0.0039105554	       -0.0009576667	        0.0015716122	
        1.9960000000	        0.0000000000	        0.0000000000	        0.0000000000	        0.1988394961	        0.0000558755	       -0.3004071324	       -0.0000000000	        0.0000000000	       -0.0000000000	       -0.0000000000	        0.0000000000	       -0.0000000000	        0.2029003516	       -0.0000795827	        0.4543649445	        0.0000000000	        0.0000000000	       -0.0000000000	       -0.0002452859	        0.0001044675	        0.0042479326	        0.2076431971	        0.0000770316	        1.3583900146	       -0.0004734541	       -0.0000107191	       -0.0001756915	
        1.9970000000	        0.0000000000	        0.0000000000	        0.0000000000	        0.1988394961	        0.0000558755	       -0.3004071324	       -0.0000000000	        0.0000000000	       -0.0000000000	        0.0000000000	        0.0000000000	       -0.0000000000	        0.2029003516	       -0.0000795827	        0.4543649445	        0.0000000000	        0.0000000000	       -0.0000000000	        0.0000030691	        0.0245907115	        0.0047755581	        0.2076431971	        0.0000770316	        1.3583900146	       -0.0034191078	        0.0006326245	       -0.0013505353	
        1.9980000000	        0.0000000000	        0.0000000000	        0.0000000000	        0.1988394961	        0.0000558755	       -0.3004071324	       -0.0000000000	        0.0000000000	       -0.0000000000	        0.0000000000	        0.0000000000	       -0.0000000000	        0.2029003516	       -0.0000795827	        0.4543649445	        0.0000000000	        0.0000000000	       -0.0000000000	        0.0001714297	        0.0396677278	        0.0048343339	        0.2076431971	        0.0000770316	        1.3583900146	       -0.0052039609	        0.0010295970	       -0.0020632293	
        1.9990000000	        0.0000000000	        0.0000000000	        0.0000000000	        0.1988394961	        0.0000558755	       -0.3004071324	       -0.0000000000	        0.0000000000	       -0.0000000000	        0.0000000000	        0.0000000000	       -0.0000000000	        0.2029003516	       -0.0000795827	        0.4543649445	        0.0000000000	        0.0000000000	       -0.0000000000	        0.0002749477	        0.0474139511	        0.0045712280	        0.2076431971	        0.0000770316	        1.3583900146	       -0.0060891379	        0.0012344825	       -0.0024176040	
        2.0000000000	        0.0000000000	        0.0000000000	        0.0000000000	        0.1988394961	        0.0000558755	       -0.3004071324	       -0.0000000000	        0.0000000000	       -0.0000000000	        0.0000000000	        0.0000000000	       -0.0000000000	        0.2029003516	       -0.0000795827	        0.4543649445	        0.0000000000	        0.0000000000	       -0.0000000000	        0.0003279704	        0.0496994311	        0.0041061588	        0.2076431971	        0.0000770316	        1.3583900146	       -0.0063082460	        0.0012961614	       -0.0025065849	
